<?xml version="1.0" encoding="utf-8"?>
<!-- Generator: Adobe Illustrator 21.1.0, SVG Export Plug-In . SVG Version: 6.00 Build 0)  -->
<svg version="1.1" id="Capa_1" xmlns="http://www.w3.org/2000/svg" xmlns:xlink="http://www.w3.org/1999/xlink" x="0px" y="0px"
	 viewBox="0 0 508.5 508.5" style="enable-background:new 0 0 508.5 508.5;" xml:space="preserve">
<style type="text/css">
	.st0{fill:#636C72;}
</style>
<g>
	<g>
		<g>
			<path class="st0" d="M333.7,255.1V90.5C373.9,76.9,384,55,384,39.5c0-52.7-259-52.7-259,0c0,17.1,9.7,38.6,49.8,51.6v164
				c-40.1,10.2-72.8,29-72.8,55c0,24.4,70.6,37.3,136.4,39.1l0,0.4v95.3c0,17.5,7.1,63.6,15.9,63.6c8.7,0,15.9-46,15.9-63.6v-95.3
				l0-0.4c65.8-1.8,140.9-14.8,140.9-39.1C411,284.2,373.9,265.3,333.7,255.1z"/>
		</g>
	</g>
</g>
</svg>
