<?xml version="1.0" encoding="UTF-8"?>
<svg width="350px" height="59px" viewBox="0 0 350 59" version="1.1" xmlns="http://www.w3.org/2000/svg" xmlns:xlink="http://www.w3.org/1999/xlink">
    <!-- Generator: Sketch 43.1 (39012) - http://www.bohemiancoding.com/sketch -->
    <title>Page 1</title>
    <desc>Created with Sketch.</desc>
    <defs>
        <polygon id="path-1" points="0 58.14576 349.464706 58.14576 349.464706 -0.000178847296 0 -0.000178847296"></polygon>
    </defs>
    <g id="design" stroke="none" stroke-width="1" fill="none" fill-rule="evenodd">
        <g id="my-ope-office-LP" transform="translate(-450.000000, -260.000000)">
            <g id="top" transform="translate(0.000000, 75.000000)">
                <g id="Group" transform="translate(450.000000, 120.000000)">
                    <g id="Page-1" transform="translate(0.000000, 65.000000)">
                        <path d="M47.7829668,44.1527475 L42.2053453,44.1527475 L37.9749105,6.64489245 L27.7685166,40.876265 C27.1562404,43.3255787 25.8788747,44.5506827 23.9373146,44.5506827 C21.9554731,44.5506827 20.5456266,43.0197499 19.7077749,39.9578841 L10.1145524,6.64489245 L5.67017903,44.1527475 L0.000358056266,44.1527475 L4.65867008,5.69521331 C5.14920716,1.8982852 6.88578005,-0.000178847296 9.86928389,-0.000178847296 C12.5251662,-0.000178847296 14.3637852,1.65415865 15.3860358,4.96104516 L24.0599488,35.3650856 L32.7642967,5.57270291 C33.3980563,3.61343078 34.1642967,2.19517172 35.063913,1.31703149 C35.9626343,0.439785502 37.1272123,-0.000178847296 38.5576471,-0.000178847296 C41.3773402,-0.000178847296 43.113913,1.94031432 43.7682609,5.81772371 L47.7829668,44.1527475 Z" id="Fill-1" fill="#FFFFFF"></path>
                        <path d="M75.8040921,14.4217989 L75.8040921,31.4149747 C75.8040921,33.0889854 75.6098465,34.6458512 75.2222506,36.0846777 C74.8337596,37.5235042 74.2411765,38.8156759 73.4445013,39.9576159 C72.6675192,41.1013443 71.6560102,42.0706967 70.4099744,42.8665671 C69.1845269,43.6633318 66.6870844,44.6711364 63.4001279,44.6711364 C59.7148338,44.6711364 56.8118926,43.4487151 55.2991049,42.2844192 C53.7872123,41.1210175 52.6530691,39.6419504 51.8975703,37.8454293 C51.1411765,36.0489082 50.7634271,34.028828 50.7634271,31.7825059 L50.7634271,14.4217989 L55.942711,14.4217989 L55.942711,31.4149747 C55.942711,33.8642885 56.5970588,35.8754263 57.9048593,37.4474941 C59.1714834,39.0195618 60.9895141,39.8047014 63.3607417,39.8047014 C65.0355499,39.8047014 66.4149616,39.4067662 67.4980818,38.6108957 C68.581202,37.814131 69.3877238,36.7535665 69.9194373,35.4265196 C70.4099744,34.0994727 70.655243,32.6400787 70.655243,31.0483378 L70.655243,14.4217989 L75.8040921,14.4217989 Z" id="Fill-3" fill="#FFFFFF"></path>
                        <mask id="mask-2" fill="white">
                            <use xlink:href="#path-1"></use>
                        </mask>
                        <g id="Clip-6"></g>
                        <polygon id="Fill-5" fill="#FFFFFF" mask="url(#mask-2)" points="81.1265985 31.2015205 94.7658568 31.2015205 94.7658568 26.7616364 81.1265985 26.7616364"></polygon>
                        <path d="M110.278376,20.4229305 C108.745895,21.3413113 107.530294,22.5816173 106.631573,24.1438485 C105.731957,25.7051854 105.282596,27.3943981 105.282596,29.2105924 C105.282596,31.088489 105.731957,32.8340386 106.631573,34.446347 C107.550882,36.0586554 108.777225,37.3356251 110.308811,38.2736791 C111.86188,39.2126275 113.558171,39.6821016 115.397685,39.6821016 C117.17454,39.6821016 118.819808,39.2224641 120.331701,38.3040832 C121.843593,37.3857023 123.043977,36.1409251 123.932852,34.5688574 C124.822621,32.9976839 125.266611,31.304 125.266611,29.4860172 C125.266611,27.56788 124.822621,25.8115995 123.932852,24.2198586 C123.043977,22.6281176 121.833747,21.3726096 120.301266,20.4533345 C118.768785,19.5349537 117.093082,19.0762103 115.274156,19.0762103 C113.497302,19.0762103 111.831445,19.5251171 110.278376,20.4229305 M122.96789,15.8301319 C125.337327,17.2385544 127.212647,19.1477493 128.592059,21.5559281 C129.970575,23.9650012 130.660729,26.5573928 130.660729,29.3331028 C130.660729,32.1302745 129.970575,34.7173007 128.592059,37.0950755 C127.212647,39.4737445 125.348069,41.3516411 122.998325,42.7287653 C120.648581,44.1067837 118.073261,44.7953458 115.274156,44.7953458 C112.475051,44.7953458 109.899731,44.0969471 107.550882,42.6983613 C105.201138,41.3006696 103.33656,39.4066768 101.957148,37.0181711 C100.577737,34.6296655 99.8884783,32.0274373 99.8884783,29.2105924 C99.8884783,26.4143149 100.583107,23.8219234 101.972366,21.4334177 C103.321343,19.0663737 105.179655,17.1884771 107.550882,15.7997279 C109.921215,14.4118728 112.495639,13.7170511 115.274156,13.7170511 C118.03298,13.7170511 120.596662,14.4217094 122.96789,15.8301319" id="Fill-7" fill="#FFFFFF" mask="url(#mask-2)"></path>
                        <path d="M173.002136,26.7636931 C173.294847,25.4974542 173.807762,24.2795042 174.59101,23.1187852 C175.675921,21.510948 177.062494,20.2786901 178.749834,19.4211173 C180.392417,18.5581791 182.116458,18.168292 183.921061,18.251456 C185.725665,18.33462 187.364668,18.8720561 188.838964,19.8655529 C190.109169,20.720443 191.095614,21.7425553 191.798299,22.9301013 C192.499194,24.1167531 192.85009,25.3865689 192.848299,26.7395487 L173.002136,26.7636931 Z M197.614923,25.5922433 C197.216586,23.7000389 196.506739,21.94197 195.484488,20.3171423 C194.466714,18.7200359 193.161598,17.3858351 191.569143,16.3127513 C189.231036,14.7371067 186.696893,13.8553895 183.965818,13.6658113 C181.234744,13.475339 178.643312,13.9823711 176.192417,15.1869076 C173.739731,16.3914441 171.715818,18.1781286 170.116202,20.5478553 C168.859425,22.4096557 168.06633,24.3868125 167.737813,26.4793259 C167.410192,28.5727335 167.49344,30.6294774 167.990243,32.6513461 C168.487046,34.6714263 169.334744,36.5296497 170.532442,38.2224394 C171.69165,39.9384792 173.09165,41.3495844 174.735128,42.4566491 C176.310575,43.5181078 178.039092,44.2442279 179.917097,44.6367977 C181.797788,45.0293675 183.716074,45.0347329 185.672852,44.6546824 C187.140882,44.4123443 188.546253,43.9187258 189.888964,43.1738268 C191.229885,42.4271393 192.786535,41.3093437 194.557123,39.8186515 L191.701624,36.3803122 C190.11812,37.850437 188.471061,38.8823859 186.762238,39.4797359 C183.428734,40.7307727 180.372724,40.4195784 177.595102,38.5479415 C176.070678,37.521358 174.862238,36.1343972 173.970678,34.3888476 C173.435384,33.3416967 173.092545,32.2417858 172.899194,31.1016343 L197.891522,31.3180395 C198.104565,29.3945368 198.013261,27.4853419 197.614923,25.5922433 L197.614923,25.5922433 Z" id="Fill-8" fill="#FFFFFF" mask="url(#mask-2)"></path>
                        <path d="M324.463785,26.7636931 C324.756496,25.4974542 325.269412,24.2795042 326.05266,23.1187852 C327.13757,21.510948 328.524143,20.2786901 330.211483,19.4211173 C331.854066,18.5581791 333.578107,18.168292 335.382711,18.251456 C337.187315,18.33462 338.826317,18.8720561 340.300614,19.8655529 C341.570818,20.720443 342.557263,21.7425553 343.259949,22.9301013 C343.960844,24.1167531 344.311739,25.3865689 344.309949,26.7395487 L324.463785,26.7636931 Z M349.076573,25.5922433 C348.678235,23.7000389 347.968389,21.94197 346.946138,20.3171423 C345.928363,18.7200359 344.623248,17.3858351 343.030793,16.3127513 C340.692685,14.7371067 338.158542,13.8553895 335.427468,13.6658113 C332.696394,13.475339 330.104962,13.9823711 327.654066,15.1869076 C325.201381,16.3914441 323.177468,18.1781286 321.577852,20.5478553 C320.321074,22.4096557 319.52798,24.3868125 319.199463,26.4793259 C318.871841,28.5727335 318.95509,30.6294774 319.451893,32.6513461 C319.948696,34.6714263 320.796394,36.5296497 321.994092,38.2224394 C323.153299,39.9384792 324.553299,41.3495844 326.196777,42.4566491 C327.772225,43.5181078 329.500742,44.2442279 331.378747,44.6367977 C333.259437,45.0293675 335.177724,45.0347329 337.134501,44.6546824 C338.602532,44.4123443 340.007903,43.9187258 341.350614,43.1738268 C342.691535,42.4271393 344.248184,41.3093437 346.018772,39.8186515 L343.163274,36.3803122 C341.57977,37.850437 339.932711,38.8823859 338.223887,39.4797359 C334.890384,40.7307727 331.834373,40.4195784 329.056752,38.5479415 C327.532327,37.521358 326.323887,36.1343972 325.432327,34.3888476 C324.897033,33.3416967 324.554194,32.2417858 324.360844,31.1016343 L349.353171,31.3180395 C349.566215,29.3945368 349.47491,27.4853419 349.076573,25.5922433 L349.076573,25.5922433 Z" id="Fill-9" fill="#FFFFFF" mask="url(#mask-2)"></path>
                        <path d="M224.395563,20.4229305 C222.863977,21.3413113 221.647481,22.5816173 220.74876,24.1438485 C219.849143,25.7051854 219.400678,27.3943981 219.400678,29.2105924 C219.400678,31.088489 219.849143,32.8340386 220.74876,34.446347 C221.668964,36.0586554 222.894412,37.3356251 224.426893,38.2736791 C225.979066,39.2126275 227.676253,39.6821016 229.514872,39.6821016 C231.292621,39.6821016 232.93789,39.2224641 234.448887,38.3040832 C235.96257,37.3857023 237.162059,36.1409251 238.050934,34.5688574 C238.939808,32.9976839 239.384693,31.304 239.384693,29.4860172 C239.384693,27.56788 238.939808,25.8115995 238.050934,24.2198586 C237.162059,22.6281176 235.950934,21.3726096 234.418453,20.4533345 C232.885972,19.5349537 231.211164,19.0762103 229.392238,19.0762103 C227.614488,19.0762103 225.949527,19.5251171 224.395563,20.4229305 M237.085972,15.8301319 C239.455409,17.2385544 241.329834,19.1477493 242.709246,21.5559281 C244.087762,23.9650012 244.778811,26.5573928 244.778811,29.3331028 C244.778811,32.1302745 244.087762,34.7173007 242.709246,37.0950755 C241.329834,39.4737445 239.465256,41.3516411 237.116407,42.7287653 C234.766662,44.1067837 232.191343,44.7953458 229.392238,44.7953458 C226.593133,44.7953458 224.016918,44.0969471 221.668964,42.6983613 C219.318325,41.3006696 217.453747,39.4066768 216.07523,37.0181711 C214.695818,34.6296655 214.00656,32.0274373 214.00656,29.2105924 C214.00656,26.4143149 214.700294,23.8219234 216.090448,21.4334177 C217.438529,19.0663737 219.298632,17.1884771 221.668964,15.7997279 C224.038402,14.4118728 226.613721,13.7170511 229.392238,13.7170511 C232.151061,13.7170511 234.715639,14.4217094 237.085972,15.8301319" id="Fill-10" fill="#FFFFFF" mask="url(#mask-2)"></path>
                        <path d="M70.6513043,14.4360172 L75.797468,14.4360172 L75.797468,46.3709905 C75.797468,50.1267837 74.7447826,53.0464658 72.6394118,55.1282484 C70.5975959,57.1080879 67.6445269,58.0980077 63.7819949,58.0980077 L62.229821,58.0980077 L62.229821,53.7815282 L62.7704859,53.7815282 C65.4066752,53.7609608 67.3428645,53.1636108 68.5790537,51.9903725 C69.815243,50.81624 70.6513043,48.9848437 70.6513043,46.4935009 L70.6513043,14.4360172 Z" id="Fill-11" fill="#FFFFFF" mask="url(#mask-2)"></path>
                        <path d="M272.009706,44.1527475 L266.646023,44.1527475 L266.646023,12.2177742 C266.646023,8.46198099 267.697813,5.54229887 269.802289,3.46051634 C271.845895,1.48067677 274.798964,0.489862745 278.660601,0.489862745 L282.920575,0.489862745 L282.920575,4.80723648 L279.67211,4.80723648 C277.035921,4.82780392 275.099731,5.42515389 273.864437,6.59839216 C272.627353,7.77252466 272.009706,9.60392097 272.009706,12.0952638 L272.009706,14.4220671 L282.920575,14.4220671 L282.920575,19.0756738 L272.009706,19.0756738 L272.009706,44.1527475 Z" id="Fill-12" fill="#FFFFFF" mask="url(#mask-2)"></path>
                        <path d="M253.476624,44.1527475 L248.112941,44.1527475 L248.112941,12.2177742 C248.112941,8.46198099 249.165627,5.54229887 251.269207,3.46051634 C253.312813,1.48067677 256.265882,0.489862745 260.127519,0.489862745 L264.387494,0.489862745 L264.387494,4.80723648 L261.139028,4.80723648 C258.503734,4.82780392 256.56665,5.42515389 255.331355,6.59839216 C254.094271,7.77252466 253.476624,9.60392097 253.476624,12.0952638 L253.476624,14.4220671 L268.284041,14.4220671 L268.284041,19.0756738 L253.476624,19.0756738 L253.476624,44.1527475 Z" id="Fill-13" fill="#FFFFFF" mask="url(#mask-2)"></path>
                        <path d="M287.012532,44.1527475 L292.376215,44.1527475 L292.376215,14.4220671 L287.012532,14.4220671 L287.012532,44.1527475 Z M292.224041,3.23069756 C292.815729,3.91478847 293.112916,4.756265 293.112916,5.75691563 C293.112916,6.75667201 292.815729,7.6044082 292.224041,8.29744147 C291.630563,8.99226322 290.782864,9.33922698 289.680051,9.33922698 C288.576343,9.33922698 287.727749,8.99226322 287.136061,8.29744147 C286.542583,7.58384076 286.247187,6.73610458 286.247187,5.75691563 C286.247187,4.79739988 286.547954,3.96575995 287.151279,3.2611016 C287.753708,2.55733749 288.596931,2.20500832 289.680051,2.20500832 C290.782864,2.20500832 291.630563,2.54750089 292.224041,3.23069756 L292.224041,3.23069756 Z" id="Fill-14" fill="#FFFFFF" mask="url(#mask-2)"></path>
                        <path d="M56.7119949,51.98921 C57.3036829,52.673301 57.6008696,53.5156717 57.6008696,54.5154281 C57.6008696,55.5160787 57.3036829,56.3638149 56.7119949,57.0568482 C56.1185166,57.7507757 55.2699233,58.0977395 54.1680051,58.0977395 C53.0642967,58.0977395 52.2157033,57.7507757 51.6240153,57.0568482 C51.0305371,56.3423532 50.7351407,55.4955113 50.7351407,54.5154281 C50.7351407,53.5559124 51.0359079,52.7242724 51.6392327,52.0196141 C52.2416624,51.31585 53.0839898,50.9635208 54.1680051,50.9635208 C55.2699233,50.9635208 56.1185166,51.3060134 56.7119949,51.98921" id="Fill-15" fill="#FFFFFF" mask="url(#mask-2)"></path>
                        <path d="M316.017148,44.1527475 L312.185946,44.1527475 C310.264974,44.1527475 308.619706,44.0204005 307.251036,43.7548122 C305.902954,43.5097914 304.686458,43.0912888 303.604233,42.4993042 C302.540806,41.9278871 301.468427,41.1212858 300.385307,40.0803945 C298.935179,38.6317314 297.836841,36.9827594 297.091189,35.1352668 C296.344642,33.2886684 295.973159,31.3750024 295.973159,29.3942686 C295.973159,27.2311105 296.42789,25.1233951 297.336458,23.0720166 C298.245026,21.0197439 299.558197,19.2697231 301.274182,17.8201658 C302.664335,16.6165235 304.176228,15.7491141 305.810754,15.2179376 C307.446176,14.6876554 309.428018,14.4220671 311.757174,14.4220671 L316.017148,14.4220671 L316.017148,19.0756738 L312.891317,19.0756738 C310.643619,19.0756738 308.671624,19.4897053 306.975332,20.3159798 C305.279936,21.1422543 303.966765,22.3369542 303.036714,23.8982911 C302.106662,25.4605223 301.643875,27.2713512 301.643875,29.3334605 C301.643875,31.4966185 302.133517,33.3441111 303.114591,34.875044 C304.114463,36.4265443 305.46344,37.5953113 307.158836,38.380451 C308.855128,39.1673791 310.725077,39.5599489 312.768683,39.5599489 L316.017148,39.5599489 L316.017148,44.1527475 Z" id="Fill-16" fill="#FFFFFF" mask="url(#mask-2)"></path>
                        <path d="M157.829949,34.5691257 C156.941074,36.1411934 155.740691,37.3859706 154.228798,38.3043515 C152.716905,39.2227323 151.071637,39.6823699 149.294783,39.6823699 C147.455269,39.6823699 145.758977,39.2128957 144.205908,38.2739474 C142.673427,37.3349991 141.44798,36.0589236 140.527775,34.4466153 C139.629054,32.8343069 139.179693,31.0887573 139.179693,29.2108607 C139.179693,27.3937721 139.629054,25.7054537 140.527775,24.1432225 C141.427391,22.5818856 142.642992,21.3415796 144.175473,20.4231988 C145.728542,19.5253853 147.393504,19.0764786 149.171253,19.0764786 C150.990179,19.0764786 152.665882,19.5352219 154.197468,20.4536028 C155.730844,21.3719837 156.941074,22.6274917 157.829949,24.2192326 C158.718824,25.8118678 159.163708,27.5681482 159.163708,29.4862855 C159.163708,31.303374 158.718824,32.9979522 157.829949,34.5691257 M162.489156,21.5561964 C161.109744,19.1480175 159.234425,17.2388226 156.864987,15.8304002 C154.49376,14.4219777 151.930077,13.7173194 149.171253,13.7173194 C146.392737,13.7173194 143.817417,14.4121411 141.44798,15.7991019 C139.076752,17.1878512 137.217545,19.0657478 135.869463,21.433686 C134.67445,23.4859587 133.997724,25.6911459 133.829437,28.0456705 C133.721125,28.8612142 133.650409,29.6857002 133.650409,30.5271768 L133.650409,58.1456705 L138.891458,58.1456705 L138.891458,40.7688672 C139.673811,41.4833622 140.510767,42.1415202 141.44798,42.6986295 C143.796829,44.0972154 146.372148,44.7956141 149.171253,44.7956141 C151.970358,44.7956141 154.545678,44.107052 156.895422,42.7290336 C159.244271,41.3510152 161.109744,39.4731185 162.489156,37.0953437 C163.867673,34.7175689 164.557826,32.1296485 164.557826,29.3333711 C164.557826,26.557661 163.867673,23.9643752 162.489156,21.5561964" id="Fill-17" fill="#FFFFFF" mask="url(#mask-2)"></path>
                    </g>
                </g>
            </g>
        </g>
    </g>
</svg>