<svg id="レイヤー_1" data-name="レイヤー 1" xmlns="http://www.w3.org/2000/svg" width="266" height="78" viewBox="0 0 266 78"><defs><style>.cls-1{fill:#e66932;}</style></defs><title>アートボード 1</title><path class="cls-1" d="M64.46,59.07H57L51.32,8.74,37.64,54.67Q36.41,59.6,32.5,59.6t-5.67-6.16L14,8.74,8,59.07H.42L6.66,7.47q1-7.64,7-7.64Q19-.17,21,6.48L32.67,47.28l11.67-40A14,14,0,0,1,47.41,1.6,6.42,6.42,0,0,1,52.1-.17q5.67,0,7,7.81Z"/><path class="cls-1" d="M102,19.18V42a24,24,0,0,1-.78,6.26,16.54,16.54,0,0,1-2.38,5.2,13.86,13.86,0,0,1-4.07,3.9,17.92,17.92,0,0,1-9.4,2.42,18.41,18.41,0,0,1-10.86-3.2,14.44,14.44,0,0,1-4.56-6,20.8,20.8,0,0,1-1.52-8.13V19.18H75.4V42A12.23,12.23,0,0,0,78,50.07a8.84,8.84,0,0,0,7.31,3.16,9.11,9.11,0,0,0,5.55-1.6,9.6,9.6,0,0,0,3.25-4.27,16.85,16.85,0,0,0,1-5.87V19.18Z"/><path class="cls-1" d="M109.15,35.74h18.28v6H109.15Z"/><path class="cls-1" d="M165.24,21.07a21.12,21.12,0,0,1,10.31,18.12,20.79,20.79,0,0,1-10.27,18,20.08,20.08,0,0,1-10.35,2.77,19.86,19.86,0,0,1-10.35-2.81,20.84,20.84,0,0,1-7.5-7.62,21,21,0,0,1,0-20.91,20.48,20.48,0,0,1,17.83-10.35A19.82,19.82,0,0,1,165.24,21.07Zm-17,6.16a13.67,13.67,0,0,0-4.89,5,13.4,13.4,0,0,0-1.81,6.8,14.16,14.16,0,0,0,6.74,12.16,12.93,12.93,0,0,0,6.82,1.89,12.5,12.5,0,0,0,6.61-1.85,13.88,13.88,0,0,0,6.61-11.83,14.26,14.26,0,0,0-1.79-7.07,13.38,13.38,0,0,0-4.87-5.05,12.85,12.85,0,0,0-6.74-1.85A13.15,13.15,0,0,0,148.23,27.23Z"/><path class="cls-1" d="M265.29,34.17a21.49,21.49,0,0,0-2.86-7.08,18.23,18.23,0,0,0-5.25-5.37A20.5,20.5,0,0,0,247,18.16a20,20,0,0,0-10.42,2,20.76,20.76,0,0,0-8.15,7.19,19.52,19.52,0,0,0-3.19,8,20.86,20.86,0,0,0,.34,8.28A21.87,21.87,0,0,0,229,51.11a20.77,20.77,0,0,0,5.63,5.68,19.41,19.41,0,0,0,14.66,2.95,17.39,17.39,0,0,0,5.65-2,41.38,41.38,0,0,0,6.26-4.5l-3.83-4.61a19,19,0,0,1-6.62,4.16,12.78,12.78,0,0,1-12.29-1.25A14.57,14.57,0,0,1,233.6,46a15.19,15.19,0,0,1-1.44-4.41l33.5.29A24.16,24.16,0,0,0,265.29,34.17Zm-33,1.57a14.49,14.49,0,0,1,2.13-4.89,14.65,14.65,0,0,1,5.57-5,13.32,13.32,0,0,1,6.93-1.57,12.61,12.61,0,0,1,6.59,2.17,12.85,12.85,0,0,1,4,4.11,9.86,9.86,0,0,1,1.41,5.11Z"/><path class="cls-1" d="M95.11,19.2H102V62q0,7.56-4.23,11.75-4.1,4-11.87,4H83.83V72h.73q5.3,0,7.78-2.4a9.84,9.84,0,0,0,2.78-7.37Z"/><path class="cls-1" d="M76.43,69.58A5,5,0,0,1,77.62,73a5.07,5.07,0,0,1-1.19,3.41,4.86,4.86,0,0,1-6.82,0A5.17,5.17,0,0,1,68.42,73a5,5,0,0,1,1.21-3.35A4.22,4.22,0,0,1,73,68.21,4.27,4.27,0,0,1,76.43,69.58Z"/><path class="cls-1" d="M218.21,28.75a20.81,20.81,0,0,0-7.54-7.68,19.82,19.82,0,0,0-10.31-2.83,20.48,20.48,0,0,0-17.83,10.35,20.29,20.29,0,0,0-2.73,8.87,25.16,25.16,0,0,0-.24,3.33V77.84h7V54.53A21,21,0,0,0,190,57.12a19.86,19.86,0,0,0,10.35,2.81,20.08,20.08,0,0,0,10.35-2.77,20.91,20.91,0,0,0,7.5-28.41ZM212,46.21a13.56,13.56,0,0,1-4.83,5,12.5,12.5,0,0,1-6.61,1.85,12.93,12.93,0,0,1-6.82-1.89A14.16,14.16,0,0,1,187,39a13.4,13.4,0,0,1,1.81-6.8,13.67,13.67,0,0,1,4.89-5,13.15,13.15,0,0,1,6.7-1.81,12.85,12.85,0,0,1,6.74,1.85A13.38,13.38,0,0,1,212,32.32a14.26,14.26,0,0,1,1.79,7.07A13.63,13.63,0,0,1,212,46.21Z"/></svg>